<svg xmlns="http://www.w3.org/2000/svg" viewBox="-55 -55 900 900" aria-label="Jay Trainer J">
  <path fill="#15110f" transform="matrix(3.054688 0 0 3.054688 -204.983495 -298.262076)" d="M152.528,302.048C149.75,301.469 133.238,300.298 128.805,284.414C126.421,275.872 131.364,270.487 133.408,269.352C139.274,266.097 141.474,272.51 141.928,273.182C147.505,281.432 161.663,279.558 167.023,272.106C184.617,247.646 145.204,222.074 111.9,254.908C82.586,283.808 94.143,329.913 130.474,336.637C157.912,341.715 187.514,331.897 215.825,273.665C254.901,193.29 262.61,138.065 286.883,118.758C289.543,116.641 281.826,116.191 280.429,115.989C215.094,106.537 192.512,172.796 216.474,179.598C228.095,182.896 224.832,170.269 232.534,171.21C246.086,172.865 231.025,202.124 204.455,197.796C163.208,191.076 170.915,127.351 227.455,111.357C265.471,100.603 285.149,115.397 325.531,105.634C329.34,104.714 334.156,108.968 325.711,112.985C282.242,133.661 286.477,201.944 234.935,289.769C174.013,393.577 81.265,354.99 69.591,310.473C50.977,239.491 141.638,201.571 182.92,236.027C206.056,255.337 193.954,301.971 152.528,302.048Z"/>
</svg>
